<?xml version="1.0" encoding="UTF-8"?>
<svg id="_レイヤー_1" data-name="レイヤー_1" xmlns="http://www.w3.org/2000/svg" xmlns:xlink="http://www.w3.org/1999/xlink" version="1.1" viewBox="0 0 80 80">
  <!-- Generator: Adobe Illustrator 29.6.1, SVG Export Plug-In . SVG Version: 2.1.1 Build 9)  -->
  <defs>
    <style>
      .st0 {
        fill: url(#_名称未設定グラデーション_6);
        filter: url(#drop-shadow-1);
      }
    </style>
    <linearGradient id="_名称未設定グラデーション_6" data-name="名称未設定グラデーション 6" x1="40" y1="52" x2="40" y2="30.4" gradientUnits="userSpaceOnUse">
      <stop offset="0" stop-color="#000"/>
      <stop offset="1" stop-color="#04006a"/>
    </linearGradient>
    <filter id="drop-shadow-1" x="16.4" y="14.8" width="55" height="56" filterUnits="userSpaceOnUse">
      <feOffset dx="4" dy="4"/>
      <feGaussianBlur result="blur" stdDeviation="5"/>
      <feFlood flood-color="#282828" flood-opacity=".7"/>
      <feComposite in2="blur" operator="in"/>
      <feComposite in="SourceGraphic"/>
    </filter>
  </defs>
  <path class="st0" d="M28.7,39.3c-.1,0-.3,0-.4,0-.1,0-.2-.2-.2-.3v-3.5c0-.1,0-.2.1-.3l11.4-8.6c.1,0,.3,0,.4,0l11.6,8.6h0c0,0,.2.2.2.3v3.5c0,.1,0,.3-.2.3-.1,0-.3,0-.4,0l-11-8.3c-.1,0-.3,0-.4,0l-11,8.3ZM39.8,37c.1-.1.3-.1.4,0l11,8.3c.1,0,.3,0,.4,0,.1,0,.2-.2.2-.3v-3.5c0-.1,0-.2-.2-.3l-11.6-8.6h0c-.1-.1-.3-.1-.4,0l-11.4,8.6c0,0-.1.2-.1.3v3.5c0,.1,0,.3.2.3.1,0,.3,0,.4,0l11-8.3ZM39.8,42.9c.1,0,.3,0,.4,0l11,8.3c.1,0,.3,0,.4,0,.1,0,.2-.2.2-.3v-3.5c0-.1,0-.2-.2-.3l-11.6-8.6h0c-.1,0-.3,0-.4,0l-11.4,8.6c0,0-.1.2-.1.3v3.5c0,.1,0,.3.2.3.1,0,.3,0,.4,0l11-8.3Z"/>
</svg>